<?xml version="1.0" encoding="utf-8"?>
<!DOCTYPE svg PUBLIC "-//W3C//DTD SVG 1.1//EN" "http://www.w3.org/Graphics/SVG/1.1/DTD/svg11.dtd">
<svg version="1.1" id="Слой_1" xmlns="http://www.w3.org/2000/svg" xmlns:xlink="http://www.w3.org/1999/xlink" x="0px" y="0px"
	 width="109.659px" height="67.567px" viewBox="0 0 109.659 67.567" style="enable-background:new 0 0 109.659 67.567;"
	 xml:space="preserve">
<path style="fill:#007bff;" d="M109.659,33.782c0,18.659-24.546,33.785-54.831,33.785C24.547,67.567,0,52.441,0,33.782
	C0,15.125,24.547,0,54.828,0C85.113,0,109.659,15.125,109.659,33.782"/>
<path style="fill:#FFFFFF;" d="M27.228,34.705l-1.151,5.41c-0.27,1.226-0.651,3.983-4.257,3.983h-2.609
	c-1.419,0-2.761,0.118-2.761-1.955c0-0.726,0.078-1.303,0.229-2.068l4.029-18.876c0.343-1.688,0.802-3.951,4.22-3.951h2.607
	c1.075,0,2.838,0,2.838,1.917c0,0.654-0.117,1.231-0.268,1.997l-0.996,4.676h-3.798l1.11-5.254c0.114-0.577-0.458-0.879-0.767-0.879
	c-0.343,0-0.958,0.459-1.034,0.879l-4.297,20.22c-0.115,0.495,0.27,0.845,0.692,0.845s0.997-0.386,1.111-0.845l1.304-6.099H27.228z"
	/>
<path style="fill:#FFFFFF;" d="M35.016,47.13c-0.268,1.231-0.844,3.953-3.874,3.953h-1.956c-0.883,0-2.38-0.079-2.38-1.534
	c0-0.572,0-1.072,0.115-1.765l0.194-0.996h3.219l-0.343,1.724c-0.077,0.31,0.115,0.654,0.691,0.654c0.728,0,0.805-0.459,0.846-0.654
	l1.185-5.756c-0.692,0.73-1.765,1.342-2.915,1.342c-0.959,0-1.57-0.646-1.57-1.611c0-0.572,0.039-1.105,0.154-1.723l3.873-18.146
	h3.224l-3.914,18.453c-0.115,0.498,0.345,0.728,0.648,0.728c0.731,0,0.842-0.537,0.885-0.728l3.914-18.453h3.221L35.016,47.13z"/>
<path style="fill:#FFFFFF;" d="M45.953,23.463c1.189-0.805,2.073-1.075,2.684-1.075c0.959,0,1.88,0.193,1.88,1.344
	c0,0.616-0.076,1.113-0.23,1.803l-3.336,15.614c-0.229,1.072-0.885,3.183-3.032,3.183c-0.423,0-1.228-0.156-2.148-1.115
	l-0.192,0.882h-3.222l5.714-26.85h3.22L45.953,23.463z M42.268,40.92c-0.114,0.461,0.308,0.729,0.615,0.729
	c0.767,0,0.881-0.577,0.92-0.729l3.182-15.117c0.043-0.194,0.194-0.728-0.611-0.728c-0.384,0-0.844,0.419-0.92,0.728L42.268,40.92z"
	/>
<path style="fill:#FFFFFF;" d="M58.614,36.586l-0.923,4.334c-0.651,3.065-2.685,3.178-3.757,3.178h-1.998
	c-1.074,0-2.377,0-2.377-1.613c0-0.495,0-0.952,0.114-1.529l3.223-15.151c0.458-2.11,1.84-3.186,3.606-3.186h1.996
	c1.994,0,2.8,1.422,2.416,3.146l-1.842,8.673h-4.755l-1.462,6.711c-0.078,0.307,0.117,0.651,0.578,0.651
	c0.42,0,0.884-0.231,0.958-0.651l0.996-4.563H58.614z M56.272,32.286l1.456-6.708c0.08-0.429-0.269-0.659-0.728-0.659
	c-0.498,0-0.771,0.426-0.808,0.659l-1.457,6.708H56.272z"/>
<path style="fill:#FFFFFF;" d="M59.688,44.098l4.565-21.479h3.224L67.285,23.5c1.306-0.768,2.03-1.112,3.106-1.112
	c1.074,0,1.498,0.614,1.498,1.575c0,0.421-0.115,0.802-0.193,1.227l-0.998,4.721h-3.221l0.842-4.072
	c0.117-0.533-0.307-0.763-0.571-0.763c-0.235,0-0.847,0.229-0.959,0.763l-3.881,18.26H59.688z"/>
<polygon style="fill:#FFFFFF;" points="75.649,17.248 83.399,17.248 82.862,19.819 78.907,19.819 76.915,29.063 80.404,29.063 
	79.868,31.634 76.379,31.634 73.73,44.099 69.929,44.099 "/>
<polygon style="fill:#FFFFFF;" points="86.659,19.819 83.78,19.819 84.318,17.248 93.866,17.248 93.331,19.819 90.456,19.819 
	85.276,44.099 81.477,44.099 "/>
</svg>
